<?xml version="1.0" encoding="UTF-8" standalone="no"?>
<!DOCTYPE svg PUBLIC "-//W3C//DTD SVG 1.1//EN" "http://www.w3.org/Graphics/SVG/1.1/DTD/svg11.dtd">
<svg width="100%" height="100%" viewBox="0 0 32 32" version="1.1" xmlns="http://www.w3.org/2000/svg" xmlns:xlink="http://www.w3.org/1999/xlink" xml:space="preserve" xmlns:serif="http://www.serif.com/" style="fill-rule:evenodd;clip-rule:evenodd;stroke-linejoin:round;stroke-miterlimit:2;">
    <g transform="matrix(0.081113,0,0,0.081113,-27.860878,-27.800829)">
        <g>
            <path d="M534.85,345.14L368.45,510.77C352.55,526.6 351.71,551.63 366.59,566.57L419.35,619.57C434.22,634.51 459.26,633.79 475.16,617.96L608.57,485.16C611.65,482.09 611.81,477.25 608.93,474.36L601.47,466.87C598.59,463.97 593.75,464.11 590.67,467.18L457.26,599.98C451.91,605.3 443.49,605.54 438.49,600.52L385.73,547.52C380.73,542.5 381.01,534.08 386.36,528.75L552.75,363.12C555.83,360.05 555.99,355.21 553.11,352.32L545.65,344.83C542.77,341.93 537.93,342.07 534.85,345.14Z" style="fill:rgb(255,90,25);fill-rule:nonzero;"/>
            <path d="M662.92,477.41C672.52,477.64 681.58,481.39 688.31,488.15L713.41,513.36C728.29,528.3 727.45,553.34 711.55,569.17L545.44,734.51C545.07,734.88 544.66,735.26 544.25,735.58C541.13,737.97 536.88,737.78 534.27,735.16L526.82,727.68C523.94,724.79 524.09,719.96 527.18,716.88L693.64,551.19C698.98,545.87 699.26,537.44 694.27,532.42L669.17,507.21C664.17,502.19 655.76,502.45 650.42,507.77L484.14,673.28C481.05,676.36 476.21,676.48 473.34,673.59L465.88,666.1C463,663.21 463.15,658.38 466.24,655.3L632.52,489.78C632.93,489.37 633.3,488.94 633.66,488.5L633.71,488.45C646.57,476.68 662.92,477.41 662.92,477.41Z" style="fill:rgb(255,90,25);fill-rule:nonzero;"/>
        </g>
        <g>
            <path d="M610.78,410.26L652.29,451.96C658.33,458.03 661.95,465.97 662.75,474.49C653.7,474.36 644.45,477.07 636.44,482.54C637.29,478.41 636.21,474.08 633.15,471.01L591.64,429.31C586.64,424.29 578.21,424.53 572.87,429.85L476.1,526.18L485.01,535.13C487.89,538.02 487.74,542.85 484.65,545.93L476.67,553.87C473.59,556.93 468.75,557.07 465.87,554.18L447.4,535.62C442.8,531 443.06,523.26 447.98,518.37L554.97,411.87C570.87,396.03 595.9,395.31 610.78,410.26Z" style="fill:rgb(255,90,25);fill-rule:nonzero;"/>
        </g>
    </g>
</svg>
