<?xml version="1.0" encoding="utf-8"?>
<!-- Generator: Adobe Illustrator 28.0.0, SVG Export Plug-In . SVG Version: 6.00 Build 0)  -->
<svg version="1.1" id="Capa_1" xmlns="http://www.w3.org/2000/svg" xmlns:xlink="http://www.w3.org/1999/xlink" x="0px" y="0px"
	 viewBox="0 0 1080 1080" style="enable-background:new 0 0 1080 1080;" xml:space="preserve">
<style type="text/css">
	.st0{fill:#34202F;}
	.st1{fill:#FF5A19;}
	.st2{fill:#FFFFFF;}
</style>
<g>
	<g>
		<g>
			<path class="st1" d="M534.85,345.14L368.45,510.77c-15.9,15.83-16.74,40.86-1.86,55.8l52.76,53
				c14.87,14.94,39.91,14.22,55.81-1.61l133.41-132.8c3.08-3.07,3.24-7.91,0.36-10.8l-7.46-7.49c-2.88-2.9-7.72-2.76-10.8,0.31
				l-133.41,132.8c-5.35,5.32-13.77,5.56-18.77,0.54l-52.76-53c-5-5.02-4.72-13.44,0.63-18.77l166.39-165.63
				c3.08-3.07,3.24-7.91,0.36-10.8l-7.46-7.49C542.77,341.93,537.93,342.07,534.85,345.14z"/>
			<path class="st1" d="M662.92,477.41c9.6,0.23,18.66,3.98,25.39,10.74l25.1,25.21c14.88,14.94,14.04,39.98-1.86,55.81
				L545.44,734.51c-0.37,0.37-0.78,0.75-1.19,1.07c-3.12,2.39-7.37,2.2-9.98-0.42l-7.45-7.48c-2.88-2.89-2.73-7.72,0.36-10.8
				l166.46-165.69c5.34-5.32,5.62-13.75,0.63-18.77l-25.1-25.21c-5-5.02-13.41-4.76-18.75,0.56L484.14,673.28
				c-3.09,3.08-7.93,3.2-10.8,0.31l-7.46-7.49c-2.88-2.89-2.73-7.72,0.36-10.8l166.28-165.52c0.41-0.41,0.78-0.84,1.14-1.28
				l0.05-0.05C646.57,476.68,662.92,477.41,662.92,477.41z"/>
		</g>
		<g>
			<path class="st1" d="M610.78,410.26l41.51,41.7c6.04,6.07,9.66,14.01,10.46,22.53c-9.05-0.13-18.3,2.58-26.31,8.05
				c0.85-4.13-0.23-8.46-3.29-11.53l-41.51-41.7c-5-5.02-13.43-4.78-18.77,0.54l-96.77,96.33l8.91,8.95
				c2.88,2.89,2.73,7.72-0.36,10.8l-7.98,7.94c-3.08,3.06-7.92,3.2-10.8,0.31l-18.47-18.56c-4.6-4.62-4.34-12.36,0.58-17.25
				l106.99-106.5C570.87,396.03,595.9,395.31,610.78,410.26z"/>
		</g>
	</g>
</g>
</svg>
